<svg xmlns="http://www.w3.org/2000/svg" width="16" height="22"><path fill="#636363" fill-rule="evenodd" d="M11.935 6.641a3.228 3.228 0 0 1-1.624-.45L6.745 9.757c.279.48.45 1.03.45 1.624 0 .518-.132 1.001-.347 1.436l3.044 3.044a3.227 3.227 0 0 1 2.043-.739 3.26 3.26 0 1 1-3.259 3.259c0-.277.045-.541.11-.797L5.452 14.25a3.226 3.226 0 0 1-1.517.391 3.26 3.26 0 0 1 0-6.519c.475 0 .922.106 1.329.288l3.7-3.701a3.233 3.233 0 0 1-.288-1.328 3.259 3.259 0 1 1 3.259 3.26Zm.008 13.428a1.565 1.565 0 1 0 0-3.13 1.565 1.565 0 0 0 0 3.13Zm-8-10.129a1.564 1.564 0 1 0 0 3.128 1.564 1.564 0 0 0 0-3.128Zm8-8a1.564 1.564 0 1 0 0 3.127 1.564 1.564 0 0 0 0-3.127Z"/></svg>